<svg width="25" height="27" viewBox="0 0 25 27" fill="none" xmlns="http://www.w3.org/2000/svg">
<path d="M6.99016 23.1274C6.46577 23.3007 6.18115 23.8663 6.35445 24.3907C6.52776 24.9151 7.09335 25.1997 7.61774 25.0264L7.30395 24.0769L6.99016 23.1274ZM14.5777 24.5577L14.4878 23.5617L14.4878 23.5617L14.5777 24.5577ZM18.942 23.5962L19.3775 24.4963L19.3775 24.4963L18.942 23.5962ZM23.1121 19.8351L22.3377 19.2024L22.3377 19.2024L23.1121 19.8351ZM20.26 17.4817L20.9641 18.1919L20.9641 18.1919L20.26 17.4817ZM18.3394 19.3859L19.0435 20.096L19.0435 20.096L18.3394 19.3859ZM13.123 19.2308C12.5707 19.2308 12.123 19.6785 12.123 20.2308C12.123 20.7831 12.5707 21.2308 13.123 21.2308V20.2308V19.2308ZM22.6687 17.2453L22.1173 18.0795L22.1173 18.0795L22.6687 17.2453ZM8.78002 16.6144L9.22417 17.5104L9.22417 17.5104L8.78002 16.6144ZM14.0001 16.141L14.2611 15.1757L14.2611 15.1757L14.0001 16.141ZM16.0386 16.6922L15.7776 17.6575L15.7776 17.6575L16.0386 16.6922ZM16.6845 19.1036L15.9804 18.3934L15.9804 18.3934L16.6845 19.1036ZM14.8435 19.5206C14.4513 19.9095 14.4486 20.5426 14.8374 20.9348C15.2263 21.327 15.8594 21.3298 16.2516 20.9409L15.5476 20.2308L14.8435 19.5206ZM7.30395 24.0769L7.61774 25.0264C7.78803 24.9701 8.11025 24.9399 8.64271 24.9775C9.15484 25.0137 9.7504 25.1024 10.4233 25.2072C11.7108 25.4077 13.3052 25.6767 14.6677 25.5536L14.5777 24.5577L14.4878 23.5617C13.4256 23.6577 12.1106 23.4459 10.731 23.231C10.0704 23.1282 9.39303 23.0256 8.78377 22.9825C8.19486 22.9409 7.54724 22.9433 6.99016 23.1274L7.30395 24.0769ZM14.5777 24.5577L14.6677 25.5536C16.554 25.3833 17.4492 25.4293 19.3775 24.4963L18.942 23.5962L18.5065 22.696C16.9636 23.4425 16.448 23.3847 14.4878 23.5617L14.5777 24.5577ZM18.942 23.5962L19.3775 24.4963C21.1095 23.6584 22.8406 21.7481 23.8866 20.4677L23.1121 19.8351L22.3377 19.2024C21.282 20.4947 19.7961 22.072 18.5065 22.696L18.942 23.5962ZM20.26 17.4817L19.5559 16.7716L17.6354 18.6757L18.3394 19.3859L19.0435 20.096L20.9641 18.1919L20.26 17.4817ZM16.2821 20.2308V19.2308H13.123V20.2308V21.2308H16.2821V20.2308ZM18.3394 19.3859L17.6354 18.6757C17.2779 19.0301 16.7913 19.2308 16.2821 19.2308V20.2308V21.2308C17.3162 21.2308 18.3097 20.8236 19.0435 20.096L18.3394 19.3859ZM22.6687 17.2453L23.2201 16.411C22.0689 15.6501 20.5365 15.7994 19.5559 16.7716L20.26 17.4817L20.9641 18.1919C21.2704 17.8882 21.7543 17.8396 22.1173 18.0795L22.6687 17.2453ZM23.1121 19.8351L23.8866 20.4677C24.9615 19.1519 24.5567 17.2944 23.2201 16.411L22.6687 17.2453L22.1173 18.0795C22.55 18.3655 22.6011 18.88 22.3377 19.2024L23.1121 19.8351ZM1.96984 15.4231V16.4231H5.84919V15.4231V14.4231H1.96984V15.4231ZM6.81903 16.3846H5.81903V25.0385H6.81903H7.81903V16.3846H6.81903ZM5.84919 26V25H1.96984V26V27H5.84919V26ZM1 25.0385H2V16.3846H1H0V25.0385H1ZM1.96984 26V25C1.97093 25 1.97467 25.0004 1.97905 25.0022C1.98279 25.0038 1.98574 25.0059 1.98812 25.0082C1.9905 25.0106 1.99349 25.0144 1.99601 25.0203C1.99883 25.0269 2 25.0338 2 25.0385H1H0C0 26.1299 0.890051 27 1.96984 27V26ZM6.81903 25.0385H5.81903C5.81903 25.0338 5.8202 25.0269 5.82302 25.0203C5.82554 25.0144 5.82852 25.0106 5.83091 25.0082C5.83329 25.0059 5.83624 25.0038 5.83998 25.0022C5.84436 25.0004 5.8481 25 5.84919 25V26V27C6.92898 27 7.81903 26.1299 7.81903 25.0385H6.81903ZM5.84919 15.4231V16.4231C5.8481 16.4231 5.84436 16.4227 5.83998 16.4208C5.83623 16.4193 5.83329 16.4172 5.83091 16.4148C5.82852 16.4125 5.82554 16.4087 5.82302 16.4027C5.8202 16.3961 5.81903 16.3893 5.81903 16.3846H6.81903H7.81903C7.81903 15.2932 6.92898 14.4231 5.84919 14.4231V15.4231ZM1.96984 15.4231V14.4231C0.890047 14.4231 0 15.2932 0 16.3846H1H2C2 16.3893 1.99883 16.3961 1.99601 16.4027C1.99349 16.4087 1.99051 16.4125 1.98812 16.4148C1.98574 16.4172 1.98279 16.4193 1.97905 16.4208C1.97467 16.4227 1.97093 16.4231 1.96984 16.4231V15.4231ZM7.30395 17.3462L7.74809 18.2421L9.22417 17.5104L8.78002 16.6144L8.33588 15.7185L6.8598 16.4502L7.30395 17.3462ZM11.8161 15.9038V16.9038H12.2138V15.9038V14.9038H11.8161V15.9038ZM14.0001 16.141L13.7391 17.1063L15.7776 17.6575L16.0386 16.6922L16.2996 15.7269L14.2611 15.1757L14.0001 16.141ZM16.6845 19.1036L15.9804 18.3934L14.8435 19.5206L15.5476 20.2308L16.2516 20.9409L17.3886 19.8137L16.6845 19.1036ZM16.0386 16.6922L15.7776 17.6575C16.1195 17.75 16.2169 18.159 15.9804 18.3934L16.6845 19.1036L17.3886 19.8137C18.7318 18.482 18.113 16.2172 16.2996 15.7269L16.0386 16.6922ZM12.2138 15.9038V16.9038C12.7291 16.9038 13.2421 16.972 13.7391 17.1063L14.0001 16.141L14.2611 15.1757C13.5938 14.9952 12.9053 14.9038 12.2138 14.9038V15.9038ZM8.78002 16.6144L9.22417 17.5104C10.0285 17.1116 10.916 16.9038 11.8161 16.9038V15.9038V14.9038C10.6083 14.9038 9.41685 15.1826 8.33588 15.7185L8.78002 16.6144ZM19.4269 8.69231H18.4269C18.4269 10.2561 17.1459 11.5385 15.5476 11.5385V12.5385V13.5385C18.2342 13.5385 20.4269 11.3769 20.4269 8.69231H19.4269ZM15.5476 12.5385V11.5385C13.9492 11.5385 12.6682 10.2561 12.6682 8.69231H11.6682H10.6682C10.6682 11.3769 12.8609 13.5385 15.5476 13.5385V12.5385ZM11.6682 8.69231H12.6682C12.6682 7.12851 13.9492 5.84615 15.5476 5.84615V4.84615V3.84615C12.8609 3.84615 10.6682 6.00777 10.6682 8.69231H11.6682ZM15.5476 4.84615V5.84615C17.1459 5.84615 18.4269 7.12851 18.4269 8.69231H19.4269H20.4269C20.4269 6.00777 18.2342 3.84615 15.5476 3.84615V4.84615ZM11.6682 8.69231V7.69231C10.0699 7.69231 8.78887 6.40996 8.78887 4.84615H7.78887H6.78887C6.78887 7.5307 8.98155 9.69231 11.6682 9.69231V8.69231ZM7.78887 4.84615H8.78887C8.78887 3.28235 10.0699 2 11.6682 2V1V0C8.98155 0 6.78887 2.16161 6.78887 4.84615H7.78887ZM11.6682 1V2C13.2666 2 14.5476 3.28235 14.5476 4.84615H15.5476H16.5476C16.5476 2.16161 14.3549 0 11.6682 0V1Z" fill="white"/>
</svg>
